<?xml version="1.0" encoding="utf-8"?>
<!-- Generator: Adobe Illustrator 21.1.0, SVG Export Plug-In . SVG Version: 6.00 Build 0)  -->
<svg version="1.1" id="Capa_1" xmlns="http://www.w3.org/2000/svg" xmlns:xlink="http://www.w3.org/1999/xlink" x="0px" y="0px"
	 viewBox="0 0 134.5 137" style="enable-background:new 0 0 134.5 137;" xml:space="preserve">
<style type="text/css">
	.st0{fill:#65A0E0;}
	.st1{filter:url(#Adobe_OpacityMaskFilter);}
	.st2{clip-path:url(#SVGID_2_);fill:url(#SVGID_4_);}
	.st3{clip-path:url(#SVGID_2_);mask:url(#SVGID_3_);fill:url(#SVGID_5_);}
	.st4{fill:#4E93D1;}
	.st5{fill:none;}
	.st6{fill:#AECE4D;}
	.st7{filter:url(#Adobe_OpacityMaskFilter_1_);}
	.st8{clip-path:url(#SVGID_7_);fill:url(#SVGID_9_);}
	.st9{clip-path:url(#SVGID_7_);mask:url(#SVGID_8_);fill:#BCDB5D;}
	.st10{fill:#FCFCFC;}
</style>
<path class="st0" d="M116.6,56.9L92.8,39.6c-9.2,3.6-27.6,11-39.8,15.8l0,0c-18.8,7.4-37.2,14.9-37.2,14.9S27,92.8,51.7,83.1
	c9.2-3.6,30.2-12.3,42.4-17.2l0,0C103.4,62.3,110.3,59.3,116.6,56.9"/>
<g>
	<defs>
		<path id="SVGID_1_" d="M52.9,55.5L52.9,55.5c-18.8,7.5-37.1,14.9-37.1,14.9s0.8,1.6,2.5,3.8l39.3-15.9l39.2-15.6l-4-3.1
			C83.6,43.3,65.2,50.7,52.9,55.5"/>
	</defs>
	<clipPath id="SVGID_2_">
		<use xlink:href="#SVGID_1_"  style="overflow:visible;"/>
	</clipPath>
	<defs>
		<filter id="Adobe_OpacityMaskFilter" filterUnits="userSpaceOnUse" x="15.8" y="39.6" width="81" height="34.6">
			<feColorMatrix  type="matrix" values="1 0 0 0 0  0 1 0 0 0  0 0 1 0 0  0 0 0 1 0"/>
		</filter>
	</defs>
	<mask maskUnits="userSpaceOnUse" x="15.8" y="39.6" width="81" height="34.6" id="SVGID_3_">
		<g class="st1">
			
				<linearGradient id="SVGID_4_" gradientUnits="userSpaceOnUse" x1="-329.3337" y1="384.1387" x2="-328.2342" y2="384.1387" gradientTransform="matrix(73.6389 0 0 -73.6389 24267.5859 28344.4844)">
				<stop  offset="0" style="stop-color:#000000"/>
				<stop  offset="1" style="stop-color:#FFFFFF"/>
			</linearGradient>
			<rect x="15.8" y="39.6" class="st2" width="81" height="34.6"/>
		</g>
	</mask>
	
		<linearGradient id="SVGID_5_" gradientUnits="userSpaceOnUse" x1="-329.3346" y1="384.1396" x2="-328.235" y2="384.1396" gradientTransform="matrix(73.6389 0 0 -73.6389 24267.6484 28344.5469)">
		<stop  offset="0" style="stop-color:#6498CE"/>
		<stop  offset="1" style="stop-color:#8AC1E5"/>
	</linearGradient>
	<rect x="15.8" y="39.6" class="st3" width="81" height="34.6"/>
</g>
<path class="st4" d="M75.3,51.3c0,0,26.1,7.4,32.4,9.2c3.2-1.3,6.1-2.5,8.9-3.6L92.8,39.6c-5.8,2.3-23.7,9.4-23.7,9.4"/>
<rect x="69.1" y="39.6" class="st5" width="47.5" height="20.8"/>
<path class="st6" d="M116.6,56.9c0,0,4.7-24.6-20.9-31.9c-9.5-2.7-28.6-8-41.3-11.6l0,0C35,7.9,18.8,3.3,18.8,3.3
	s-4.7,24.6,20.9,31.9C49.1,37.9,116.6,56.9,116.6,56.9"/>
<g>
	<defs>
		<path id="SVGID_6_" d="M18.4,8.6C30.6,12,73.7,24,95.5,30.1c16.8,4.7,20.6,17.4,21.3,25.6c0.5-5,1.1-24.4-21-30.7
			c-9.5-2.7-28.6-8-41.3-11.6l0,0C35,7.9,18.8,3.3,18.8,3.3S18.3,5.4,18.4,8.6"/>
	</defs>
	<clipPath id="SVGID_7_">
		<use xlink:href="#SVGID_6_"  style="overflow:visible;"/>
	</clipPath>
	<defs>
		<filter id="Adobe_OpacityMaskFilter_1_" filterUnits="userSpaceOnUse" x="18.3" y="3.3" width="99.5" height="52.4">
			<feColorMatrix  type="matrix" values="1 0 0 0 0  0 1 0 0 0  0 0 1 0 0  0 0 0 1 0"/>
		</filter>
	</defs>
	<mask maskUnits="userSpaceOnUse" x="18.3" y="3.3" width="99.5" height="52.4" id="SVGID_8_">
		<g class="st7">
			
				<linearGradient id="SVGID_9_" gradientUnits="userSpaceOnUse" x1="-329.0081" y1="384.1404" x2="-327.9083" y2="384.1404" gradientTransform="matrix(89.5691 0 0 -89.5691 29487.3145 34436.5938)">
				<stop  offset="0" style="stop-color:#000000"/>
				<stop  offset="1.375160e-02" style="stop-color:#000000"/>
				<stop  offset="1" style="stop-color:#FFFFFF"/>
			</linearGradient>
			<rect x="18.3" y="3.3" class="st8" width="99.5" height="52.4"/>
		</g>
	</mask>
	<rect x="18.3" y="3.3" class="st9" width="99.5" height="52.4"/>
</g>
<path class="st10" d="M8.9,98.3c-2,0-3.5-1.6-3.5-3.6c0-2,1.6-3.5,3.5-3.5s3.6,1.6,3.6,3.5C12.4,96.6,10.8,98.3,8.9,98.3
	 M13.2,124.7c-4.7,0-7.3-2.7-7.3-7.6v-16.6h1.7c2.7,0,4.4,1.5,4.4,4.5v11.4c0,2.5,1,3.2,3.7,3.2h1.1v1.3
	C16.8,123.7,15.8,124.7,13.2,124.7"/>
<path class="st10" d="M37.9,124.5c-2.7,0-4.5-1.7-4.5-4v-9.7c0-4.1-1.8-5.9-4.9-5.9c-2.6,0-4.4,2-4.4,5.5v14.2h-1.8
	c-2.6,0-4.3-1.7-4.3-4v-10.6c0-5.2,3.4-10.5,11-10.5c5.8,0,10.5,3.9,10.5,10.8v14.3H37.9z"/>
<path class="st10" d="M53.4,125c-6.4,0-11.4-5.6-11.4-12.3c0-8,3.9-13.3,11-13.3c2.5,0,5.1,1.7,6.1,3.9V91.8H61
	c2.9,0,4.2,1.7,4.2,4.1v17.2C65.1,120.3,61.8,125,53.4,125 M53.1,104.6c-3.1,0-5.1,3-5.1,6.9c0,5.1,2.6,8.4,6.1,8.4
	c3.4,0,4.9-2.5,4.9-7C59,106.8,56.3,104.6,53.1,104.6"/>
<path class="st10" d="M72.5,98.3c-2,0-3.5-1.6-3.5-3.6c0-2,1.6-3.5,3.5-3.5c2,0,3.6,1.6,3.6,3.5C76.1,96.6,74.5,98.3,72.5,98.3
	 M76.9,124.7c-4.7,0-7.3-2.7-7.3-7.6v-16.6h1.7c2.7,0,4.4,1.5,4.4,4.5v11.4c0,2.5,1,3.2,3.7,3.2h1.1v1.3
	C80.5,123.7,79.4,124.7,76.9,124.7"/>
<path class="st10" d="M103.1,117.6c0,1,0.1,2.3,0.1,3.1c0,6.1-4.1,11.6-12,11.6c-5,0-8.5-2.4-8.5-5.4v-2.8H83
	c1.5,1.5,4.3,2.6,7.8,2.6c4.4,0,6.4-2.1,6.4-5.6c0-0.4,0-0.9,0-1.3c0-0.4,0-1,0-1.2v-0.6c-0.5,1.8-2.8,3.6-6.3,3.6
	c-5.9,0-10.2-4.1-10.2-9.9c0-6.9,4.5-12.5,12.4-12.5c6.1,0,10,4.4,10,10.7v4.2C103,115.1,103.1,116.5,103.1,117.6 M86.9,111.1
	c0,3.2,2,5.5,4.9,5.5c3,0,5.2-2.3,5.2-6.2c0-3.8-1.9-5.7-4.6-5.7C89.2,104.8,86.9,107.5,86.9,111.1"/>
<path class="st10" d="M117.8,99.4c7.4,0,11.6,5.9,11.6,12.4c0,7.4-4.2,13.2-12.1,13.2c-7.4,0-11.6-5.9-11.6-12.3
	C105.7,105.3,109.9,99.4,117.8,99.4 M117.3,104.9c-3.5,0-5.3,2.9-5.3,6.9c0,4.9,1.8,7.8,5.8,7.8c3.5,0,5.3-2.9,5.3-6.9
	C123.1,107.8,121.3,104.9,117.3,104.9"/>
</svg>
